<svg width="140" height="240" viewBox="0 0 140 240" fill="none" xmlns="http://www.w3.org/2000/svg">
  <defs>
    <linearGradient id="frame" x1="18" y1="12" x2="122" y2="228" gradientUnits="userSpaceOnUse">
      <stop stop-color="#E6E8EC"/>
      <stop offset="0.45" stop-color="#8D949B"/>
      <stop offset="1" stop-color="#D9DCE1"/>
    </linearGradient>
    <linearGradient id="shine" x1="34" y1="26" x2="118" y2="214" gradientUnits="userSpaceOnUse">
      <stop stop-color="#FFFFFF" stop-opacity="0.45"/>
      <stop offset="1" stop-color="#FFFFFF" stop-opacity="0"/>
    </linearGradient>
    <clipPath id="innerClip">
      <rect x="20" y="14" width="100" height="212" rx="24"/>
    </clipPath>
  </defs>

  <rect x="10" y="4" width="120" height="232" rx="28" fill="url(#frame)"/>
  <rect x="16" y="10" width="108" height="220" rx="25" fill="#5B616A"/>

  <g clip-path="url(#innerClip)">
    <rect x="20" y="14" width="50" height="212" fill="#111111"/>
    <rect x="70" y="14" width="50" height="212" fill="#CF1F2E"/>
    <path d="M30 30H112V214H30V30Z" fill="url(#shine)"/>
    <path d="M62 -18L76 -18L58 258L44 258L62 -18Z" fill="#F2C230" transform="rotate(12 60 120)"/>

    <g fill="#FFFFFF">
      <path d="M79 66C79 57.7 85.7 51 94 51C102.3 51 109 57.7 109 66C109 74.3 102.3 81 94 81C85.7 81 79 74.3 79 66Z"/>
      <path d="M85 86L98 86L105 104L93 118L90 146L103 160L95 170L78 154L79 126L66 146L52 173L39 167L56 133L69 108L85 86Z"/>
      <path d="M97 86L111 94L116 118L107 129L103 109L91 99L97 86Z"/>
      <path d="M58 156L70 164L64 181L49 199L38 193L50 176L58 156Z"/>
      <path d="M84 146L95 154L101 181L89 183L84 146Z"/>
      <path d="M102 170L124 181L119 191L97 180L102 170Z"/>
      <path d="M17 171L77 164L80 173L19 181L17 171Z"/>
      <path d="M25 194L74 187L75 195L26 203L25 194Z"/>
    </g>

    <g fill="#FFFFFF" opacity="0.9">
      <rect x="33" y="70" width="6" height="58" rx="3"/>
      <rect x="33" y="132" width="6" height="10" rx="3"/>
      <rect x="33" y="146" width="6" height="10" rx="3"/>
      <rect x="33" y="160" width="6" height="10" rx="3"/>
      <rect x="33" y="174" width="6" height="10" rx="3"/>
      <rect x="33" y="188" width="6" height="10" rx="3"/>
      <rect x="33" y="202" width="6" height="10" rx="3"/>
      <rect x="45" y="70" width="6" height="142" rx="3"/>
      <rect x="33" y="70" width="18" height="6" rx="3"/>
      <rect x="33" y="100" width="16" height="6" rx="3"/>
      <rect x="33" y="132" width="18" height="6" rx="3"/>
    </g>
  </g>
</svg>
